<svg version="1.1" xmlns="http://www.w3.org/2000/svg" xmlns:xlink="http://www.w3.org/1999/xlink" width="16" height="16" viewBox="0,0,256,256"><g fill="#dcdcdc" fill-rule="nonzero" stroke="none" stroke-width="1" stroke-linecap="butt" stroke-linejoin="miter" stroke-miterlimit="10" stroke-dasharray="" stroke-dashoffset="0" font-family="none" font-weight="none" font-size="none" text-anchor="none" style="mix-blend-mode: normal"><g transform="scale(16,16)"><path d="M10.5,8.5c0,1.38071 -1.11929,2.5 -2.5,2.5c-1.38071,0 -2.5,-1.11929 -2.5,-2.5c0,-1.38071 1.11929,-2.5 2.5,-2.5c1.38071,0 2.5,1.11929 2.5,2.5z"></path><path d="M2,4c-1.10457,0 -2,0.89543 -2,2v6c0,1.10457 0.89543,2 2,2h12c1.10457,0 2,-0.89543 2,-2v-6c0,-1.10457 -0.89543,-2 -2,-2h-1.172c-0.53039,-0.00011 -1.03901,-0.2109 -1.414,-0.586l-0.828,-0.828c-0.37499,-0.3751 -0.88361,-0.58589 -1.414,-0.586h-2.344c-0.53039,0.00011 -1.03901,0.2109 -1.414,0.586l-0.828,0.828c-0.37499,0.3751 -0.88361,0.58589 -1.414,0.586zM2.5,6c-0.27614,0 -0.5,-0.22386 -0.5,-0.5c0,-0.27614 0.22386,-0.5 0.5,-0.5c0.27614,0 0.5,0.22386 0.5,0.5c0,0.27614 -0.22386,0.5 -0.5,0.5zM11.5,8.5c0,1.933 -1.567,3.5 -3.5,3.5c-1.933,0 -3.5,-1.567 -3.5,-3.5c0,-1.933 1.567,-3.5 3.5,-3.5c1.933,0 3.5,1.567 3.5,3.5z"></path></g></g></svg>