<svg xmlns="http://www.w3.org/2000/svg" xmlns:xlink="http://www.w3.org/1999/xlink" viewBox="0,0,256,256" width="100px" height="100px" fill-rule="nonzero"><g fill="none" fill-rule="nonzero" stroke="none" stroke-width="1" stroke-linecap="butt" stroke-linejoin="miter" stroke-miterlimit="10" stroke-dasharray="" stroke-dashoffset="0" font-family="none" font-weight="none" font-size="none" text-anchor="none" style="mix-blend-mode: normal"><g transform="scale(2.56,2.56)"><path d="M13,27c-1.10457,0 -2,0.89543 -2,2c0,1.10457 0.89543,2 2,2c1.10457,0 2,-0.89543 2,-2c0,-1.10457 -0.89543,-2 -2,-2z" fill="#3e4aee"></path><path d="M77,12c-0.55228,0 -1,0.44772 -1,1c0,0.55228 0.44772,1 1,1c0.55228,0 1,-0.44772 1,-1c0,-0.55228 -0.44772,-1 -1,-1z" fill="#9b19f1"></path><path d="M50,13c-20.43454,0 -37,16.56546 -37,37c0,20.43454 16.56546,37 37,37c20.43454,0 37,-16.56546 37,-37c0,-20.43454 -16.56546,-37 -37,-37z" fill="#d3d3d3"></path><path d="M83,11c-2.20914,0 -4,1.79086 -4,4c0,2.20914 1.79086,4 4,4c2.20914,0 4,-1.79086 4,-4c0,-2.20914 -1.79086,-4 -4,-4z" fill="#9b19f1"></path><path d="M87,22c-1.10457,0 -2,0.89543 -2,2c0,1.10457 0.89543,2 2,2c1.10457,0 2,-0.89543 2,-2c0,-1.10457 -0.89543,-2 -2,-2z" fill="#3e4aee"></path><path d="M81,74c-1.10457,0 -2,0.89543 -2,2c0,1.10457 0.89543,2 2,2c1.10457,0 2,-0.89543 2,-2c0,-1.10457 -0.89543,-2 -2,-2zM15,59c-2.20914,0 -4,1.79086 -4,4c0,2.20914 1.79086,4 4,4c2.20914,0 4,-1.79086 4,-4c0,-2.20914 -1.79086,-4 -4,-4z" fill="#b4e1ac"></path><path d="M25,85c-1.10457,0 -2,0.89543 -2,2c0,1.10457 0.89543,2 2,2c1.10457,0 2,-0.89543 2,-2c0,-1.10457 -0.89543,-2 -2,-2z" fill="#3e4aee"></path><path d="M18.5,51c-1.38071,0 -2.5,1.11929 -2.5,2.5c0,1.38071 1.11929,2.5 2.5,2.5c1.38071,0 2.5,-1.11929 2.5,-2.5c0,-1.38071 -1.11929,-2.5 -2.5,-2.5z" fill="#ffffff"></path><path d="M21,66c-0.55228,0 -1,0.44772 -1,1c0,0.55228 0.44772,1 1,1c0.55228,0 1,-0.44772 1,-1c0,-0.55228 -0.44772,-1 -1,-1z" fill="#9b19f1"></path><path d="M80,33c-0.55228,0 -1,0.44772 -1,1c0,0.55228 0.44772,1 1,1c0.55228,0 1,-0.44772 1,-1c0,-0.55228 -0.44772,-1 -1,-1z" fill="#ffffff"></path><g><path d="M35,72.3c-4,0 -7.3,-3.3 -7.3,-7.3v-30c0,-4 3.3,-7.3 7.3,-7.3h30c4,0 7.3,3.3 7.3,7.3v30c0,4 -3.3,7.3 -7.3,7.3z" fill="#2ec6d5"></path><path d="M65,28.4c3.6,0 6.6,3 6.6,6.6v30c0,3.6 -3,6.6 -6.6,6.6h-30c-3.6,0 -6.6,-3 -6.6,-6.6v-30c0,-3.6 3,-6.6 6.6,-6.6h30M65,27h-30c-4.4,0 -8,3.6 -8,8v30c0,4.4 3.6,8 8,8h30c4.4,0 8,-3.6 8,-8v-30c0,-4.4 -3.6,-8 -8,-8z" fill="#472b29"></path></g><g fill="#472b29"><path d="M68.5,47.4c-0.3,0 -0.5,-0.2 -0.5,-0.5v-3.9c0,-0.3 0.2,-0.5 0.5,-0.5c0.3,0 0.5,0.2 0.5,0.5v3.9c0,0.3 -0.2,0.5 -0.5,0.5z"></path></g><g fill="#472b29"><path d="M68.5,40.5c-0.3,0 -0.5,-0.2 -0.5,-0.5v-2c0,-0.3 0.2,-0.5 0.5,-0.5c0.3,0 0.5,0.2 0.5,0.5v2c0,0.3 -0.2,0.5 -0.5,0.5z"></path></g><g fill="#472b29"><path d="M64,69h-28c-2.8,0 -5,-2.2 -5,-5v-28c0,-2.8 2.2,-5 5,-5h25.4c0.3,0 0.5,0.2 0.5,0.5c0,0.3 -0.2,0.5 -0.5,0.5h-25.4c-2.2,0 -4,1.8 -4,4v28c0,2.2 1.8,4 4,4h28c2.2,0 4,-1.8 4,-4v-14.4c0,-0.3 0.2,-0.5 0.5,-0.5c0.3,0 0.5,0.2 0.5,0.5v14.4c0,2.8 -2.2,5 -5,5z"></path></g><g><path d="M52.3,58.2c0,0.9 1,1.4 3,1.4v1.8h-10.6v-1.8c2,0 3,-0.5 3,-1.4v-9.6c0,-1 -1,-1.5 -3,-1.5v-1.8h7.7v12.9zM52.8,40.1c0,0.7 -0.3,1.4 -0.8,1.9c-0.5,0.5 -1.3,0.8 -2.1,0.8c-0.4,0 -0.8,-0.1 -1.2,-0.2c-0.4,-0.1 -0.7,-0.3 -0.9,-0.6c-0.2,-0.3 -0.5,-0.5 -0.6,-0.9c-0.2,-0.3 -0.2,-0.7 -0.2,-1.1c0,-0.8 0.3,-1.4 0.9,-1.9c0.6,-0.5 1.3,-0.8 2.1,-0.8c0.8,0 1.5,0.3 2.1,0.8c0.4,0.6 0.7,1.2 0.7,2z" fill="#fdfcee"></path><path d="M55.8,62h-11.6v-2.8h0.5c1.1,0 2.5,-0.2 2.5,-0.9v-9.6c0,-0.8 -1.3,-1 -2.5,-1h-0.5v-2.8h8.7v13.4c0,0.2 0,0.3 0.1,0.4c0.2,0.2 0.7,0.5 2.4,0.5h0.5v2.8zM45.2,61h9.7v-0.8c-1.3,-0.1 -2.1,-0.3 -2.6,-0.8c-0.3,-0.3 -0.4,-0.7 -0.4,-1.1v-12.4h-6.7v0.8c2,0.1 3,0.7 3,1.9v9.6c0,1.2 -1,1.8 -3,1.9zM49.8,43.3c-0.5,0 -0.9,-0.1 -1.3,-0.3c-0.4,-0.2 -0.8,-0.4 -1.1,-0.7c-0.3,-0.3 -0.6,-0.6 -0.7,-1c-0.2,-0.4 -0.3,-0.8 -0.3,-1.3c0,-0.9 0.4,-1.7 1,-2.3c0.7,-0.6 1.5,-0.9 2.4,-0.9c0.9,0 1.7,0.3 2.4,0.9c0.7,0.6 1,1.4 1,2.3c0,0.9 -0.3,1.6 -1,2.3c-0.6,0.7 -1.4,1 -2.4,1zM49.8,37.9c-0.7,0 -1.3,0.2 -1.8,0.6c-0.5,0.4 -0.7,0.9 -0.7,1.5c0,0.3 0.1,0.6 0.2,0.8c0.1,0.3 0.3,0.5 0.5,0.7c0.2,0.2 0.5,0.4 0.8,0.5c0.3,0.1 0.6,0.2 1,0.2c0.7,0 1.3,-0.2 1.7,-0.7c0.5,-0.4 0.7,-0.9 0.7,-1.5c0,-0.6 -0.2,-1.1 -0.7,-1.5c-0.4,-0.4 -1,-0.6 -1.7,-0.6z" fill="#472b29"></path></g></g></g></svg>