<svg version="1.1" xmlns="http://www.w3.org/2000/svg" xmlns:xlink="http://www.w3.org/1999/xlink" width="16" height="16" viewBox="0,0,256,256"><g fill="#55c8ac" fill-rule="nonzero" stroke="none" stroke-width="1" stroke-linecap="butt" stroke-linejoin="miter" stroke-miterlimit="10" stroke-dasharray="" stroke-dashoffset="0" font-family="none" font-weight="none" font-size="none" text-anchor="none" style="mix-blend-mode: normal"><g transform="translate(-1.51638,0) scale(16,16)"><path d="M0.5,3l0.04,0.87c-0.26383,0.38355 -0.38485,0.84745 -0.342,1.311l0.637,7c0.09359,1.02989 0.95687,1.81859 1.991,1.819h6.174v-1h-6.174c-0.51705,-0.00049 -0.94847,-0.39505 -0.995,-0.91l-0.637,-7c-0.02528,-0.27974 0.06825,-0.55721 0.25772,-0.76456c0.18947,-0.20735 0.4574,-0.32546 0.73828,-0.32544h11.62c0.28088,-0.00002 0.54881,0.11809 0.73828,0.32544c0.18947,0.20735 0.283,0.48482 0.25772,0.76456l-0.266,2.91h1.005l0.256,-2.819c0.05084,-0.55947 -0.13596,-1.11452 -0.5147,-1.52941c-0.37875,-0.41489 -0.91452,-0.65137 -1.4763,-0.65159h-3.982c-0.53039,-0.00011 -1.03901,-0.2109 -1.414,-0.586l-0.828,-0.828c-0.37499,-0.3751 -0.88361,-0.58589 -1.414,-0.586h-3.672c-1.10457,0 -2,0.89543 -2,2zM6.172,2c0.26519,0.00006 0.51951,0.10545 0.707,0.293l0.707,0.707h-5.396c-0.24,0 -0.47,0.042 -0.683,0.12l-0.007,-0.14c0.01089,-0.54446 0.45543,-0.98011 1,-0.98z"></path><path d="M13.5,10c0.27614,0 0.5,0.22386 0.5,0.5v1.5h1.5c0.27614,0 0.5,0.22386 0.5,0.5c0,0.27614 -0.22386,0.5 -0.5,0.5h-1.5v1.5c0,0.27614 -0.22386,0.5 -0.5,0.5c-0.27614,0 -0.5,-0.22386 -0.5,-0.5v-1.5h-1.5c-0.27614,0 -0.5,-0.22386 -0.5,-0.5c0,-0.27614 0.22386,-0.5 0.5,-0.5h1.5v-1.5c0,-0.27614 0.22386,-0.5 0.5,-0.5z"></path></g></g></svg>