<svg version="1.1" xmlns="http://www.w3.org/2000/svg" xmlns:xlink="http://www.w3.org/1999/xlink" width="16" height="16" viewBox="0,0,256,256"><g fill="#dcdcdc" fill-rule="nonzero" stroke="none" stroke-width="1" stroke-linecap="butt" stroke-linejoin="miter" stroke-miterlimit="10" stroke-dasharray="" stroke-dashoffset="0" font-family="none" font-weight="none" font-size="none" text-anchor="none" style="mix-blend-mode: normal"><g transform="translate(-0.016,0) scale(16,16)"><path d="M4.502,9c0.82843,0 1.5,-0.67157 1.5,-1.5c0,-0.82843 -0.67157,-1.5 -1.5,-1.5c-0.82843,0 -1.5,0.67157 -1.5,1.5c0,0.82843 0.67157,1.5 1.5,1.5z"></path><path d="M14.002,13c0,1.10457 -0.89543,2 -2,2h-10c-1.10457,0 -2,-0.89543 -2,-2v-8c0,-1.10379 0.89421,-1.9989 1.998,-2c0,-1.10457 0.89543,-2 2,-2h10c1.10457,0 2,0.89543 2,2v8c0,1.10379 -0.89421,1.9989 -1.998,2zM14,2h-10c-0.55228,0 -1,0.44772 -1,1h9.002c1.10457,0 2,0.89543 2,2v7c0.5515,-0.0011 0.998,-0.4485 0.998,-1v-8c0,-0.55228 -0.44772,-1 -1,-1zM2.002,4c-0.55228,0 -1,0.44772 -1,1v8l2.646,-2.354c0.16851,-0.1679 0.43199,-0.19383 0.63,-0.062l2.66,1.773l3.71,-3.71c0.15207,-0.15222 0.38448,-0.19008 0.577,-0.094l1.777,1.947v-5.5c0,-0.55228 -0.44772,-1 -1,-1z"></path></g></g></svg>