<svg version="1.1" xmlns="http://www.w3.org/2000/svg" xmlns:xlink="http://www.w3.org/1999/xlink" width="16" height="16" viewBox="0,0,256,256"><g fill="#55c8ac" fill-rule="nonzero" stroke="none" stroke-width="1" stroke-linecap="butt" stroke-linejoin="miter" stroke-miterlimit="10" stroke-dasharray="" stroke-dashoffset="0" font-family="none" font-weight="none" font-size="none" text-anchor="none" style="mix-blend-mode: normal"><g transform="translate(-3.99495,-9.65771) scale(16,16)"><path d="M8.707,1.5c-0.3905,-0.39038 -1.0235,-0.39038 -1.414,0l-6.647,6.646c-0.19551,0.19551 -0.19551,0.51249 0,0.708c0.19551,0.19551 0.51249,0.19551 0.708,0l0.646,-0.647v5.293c0,0.82843 0.67157,1.5 1.5,1.5h4c0.27614,0 0.5,-0.22386 0.5,-0.5c0,-0.27614 -0.22386,-0.5 -0.5,-0.5h-4c-0.27614,0 -0.5,-0.22386 -0.5,-0.5v-6.293l5,-5l6.646,6.647c0.19551,0.19551 0.51249,0.19551 0.708,0c0.19551,-0.19551 0.19551,-0.51249 0,-0.708l-2.354,-2.353v-3.293c0,-0.27614 -0.22386,-0.5 -0.5,-0.5h-1c-0.27614,0 -0.5,0.22386 -0.5,0.5v1.293z"></path><path d="M16,12.5c0,1.933 -1.567,3.5 -3.5,3.5c-1.933,0 -3.5,-1.567 -3.5,-3.5c0,-1.933 1.567,-3.5 3.5,-3.5c1.933,0 3.5,1.567 3.5,3.5zM12.5,10.5c-0.27614,0 -0.5,0.22386 -0.5,0.5v1h-1c-0.27614,0 -0.5,0.22386 -0.5,0.5c0,0.27614 0.22386,0.5 0.5,0.5h1v1c0,0.27614 0.22386,0.5 0.5,0.5c0.27614,0 0.5,-0.22386 0.5,-0.5v-1h1c0.27614,0 0.5,-0.22386 0.5,-0.5c0,-0.27614 -0.22386,-0.5 -0.5,-0.5h-1v-1c0,-0.27614 -0.22386,-0.5 -0.5,-0.5z"></path></g></g></svg>