<svg version="1.1" xmlns="http://www.w3.org/2000/svg" xmlns:xlink="http://www.w3.org/1999/xlink" width="16" height="16" viewBox="0,0,256,256"><g fill="#dcdcdc" fill-rule="nonzero" stroke="none" stroke-width="1" stroke-linecap="butt" stroke-linejoin="miter" stroke-miterlimit="10" stroke-dasharray="" stroke-dashoffset="0" font-family="none" font-weight="none" font-size="none" text-anchor="none" style="mix-blend-mode: normal"><g transform="scale(16,16)"><path d="M5.5,9.438v-0.938h1v0.938c0.00001,0.08192 0.01008,0.16353 0.03,0.243l0.4,1.598l-0.93,0.62l-0.93,-0.62l0.4,-1.598c0.01992,-0.07947 0.02999,-0.16108 0.03,-0.243z"></path><path d="M9.293,0h-5.293c-1.10457,0 -2,0.89543 -2,2v12c0,1.10457 0.89543,2 2,2h8c1.10457,0 2,-0.89543 2,-2v-9.293c-0.00006,-0.26519 -0.10545,-0.51951 -0.293,-0.707l-3.707,-3.707c-0.18749,-0.18755 -0.44181,-0.29294 -0.707,-0.293zM9.5,3.5v-2l3,3h-2c-0.55228,0 -1,-0.44772 -1,-1zM5.5,3v-1h-1v-1h1.5v1h1v1h-1v1h1v1h-1v1h1v1h-1.5v-1h-1v-1h1v-1h-1v-1zM5.5,7.5h1c0.55228,0 1,0.44772 1,1v0.938l0.4,1.599c0.10211,0.40993 -0.06439,0.83981 -0.416,1.074l-0.93,0.62c-0.33581,0.22376 -0.77319,0.22376 -1.109,0l-0.93,-0.62c-0.35123,-0.23446 -0.51732,-0.66429 -0.415,-1.074l0.4,-1.599v-0.938c0,-0.55228 0.44772,-1 1,-1z"></path></g></g></svg>